<svg width="1366" height="500" viewBox="0 0 1366 500" fill="none" xmlns="http://www.w3.org/2000/svg">
<g opacity="0.12">
<path d="M2014.19 0.879636C1904.73 86.0103 1789.66 164.906 1664.85 225.357C1624.39 244.957 1582.66 262.683 1538.72 272.183C1449.11 291.555 1356.04 275.773 1264.4 278.572C1148.02 282.122 1032.92 316.923 933.468 377.342C858.635 422.807 775.263 487.189 688.674 507.424C610.012 525.807 519.949 457.964 447.777 433.793C373.855 409.04 292.82 407.822 217.602 427.59C178.197 437.947 140.245 454.067 105.669 475.652C72.6064 496.297 44.942 532.615 2.69848 508.045C-11.2641 499.924 -21.3894 486.702 -33.6119 476.138C-76.0894 439.431 -146.304 440.716 -187.407 478.958" stroke="#2870FF" stroke-width="0.552088" stroke-miterlimit="10"/>
<path d="M2009.3 3.63956C1902.5 89.6556 1788.71 169.225 1664.6 229.438C1623.28 249.518 1580.61 266.843 1535.94 277.173C1482.03 289.566 1426.79 289.645 1371.28 288.324C1333.39 287.425 1295.37 285.87 1257.57 287.122C1182.89 289.603 1108.66 303.551 1038.56 327.569C997.572 341.615 958.002 359.113 920.543 379.871C894.224 394.388 866.951 411.006 838.933 427.278C799.522 450.103 758.619 472.226 716.602 487.375C701.519 492.831 686.297 497.389 670.982 500.713C607.667 514.414 537.398 477.408 474.61 450.873C457.775 443.721 441.48 437.321 425.985 432.852C362.287 414.278 293.99 412.866 228.832 426.726C217.613 429.11 206.483 431.948 195.474 435.231C156.219 446.935 118.375 464.253 83.5274 486.53C62.8903 499.727 44.1615 518.624 22.6986 525.561C9.48359 529.833 -4.70866 529.503 -21.0228 520.659C-35.2762 512.932 -45.8914 500.283 -58.5197 490.131C-102.353 454.835 -173.147 455.88 -215.523 493.743" stroke="#2870FF" stroke-width="0.552088" stroke-miterlimit="10"/>
<path d="M2004.41 6.39338C1900.28 93.3003 1787.76 173.537 1664.34 233.514C1622.15 254.079 1578.56 271.002 1533.16 282.153C1478.6 295.42 1422.59 296.487 1366.26 295.882C1327.79 295.472 1289.16 294.282 1250.73 295.662C1174.82 298.374 1099.29 311.589 1027.89 333.918C986.15 346.971 945.835 363.165 907.606 382.388C880.682 395.804 852.863 411.184 824.339 426.187C784.175 447.212 742.575 467.474 699.721 481.525C684.365 486.595 668.871 490.859 653.268 493.997C588.643 506.911 517.18 471.976 453.436 447.951C436.382 441.454 419.867 435.776 404.177 431.916C339.797 416.078 271.488 417.052 206.561 433.209C195.388 435.983 184.305 439.216 173.336 442.873C134.226 455.923 96.4892 474.441 61.3748 497.415C40.5701 511.031 21.5107 530.037 -0.342866 537.275C-13.8117 541.734 -28.2296 541.601 -44.7547 533.279C-59.3099 525.947 -70.4037 513.874 -83.4383 504.13C-128.622 470.246 -200.006 471.051 -243.646 508.527" stroke="#2870FF" stroke-width="0.552088" stroke-miterlimit="10"/>
<path d="M1999.52 9.14761C1898.05 96.9403 1786.81 177.856 1664.09 237.59C1621.03 258.635 1576.52 275.157 1530.39 287.138C1475.18 301.286 1418.41 303.335 1361.24 303.445C1322.2 303.531 1282.96 302.704 1243.9 304.201C1166.75 307.15 1089.93 319.627 1017.24 340.261C974.74 352.326 933.731 367.319 894.68 384.901C867.184 397.285 838.779 411.351 809.762 425.09C768.839 444.315 726.554 462.717 682.862 475.664C667.239 480.346 651.461 484.319 635.581 487.274C569.641 499.401 496.934 466.707 432.284 445.017C414.997 439.215 398.284 434.19 382.391 430.962C317.366 417.754 249.001 421.22 184.317 439.68C173.185 442.85 162.148 446.467 151.225 450.503C112.264 464.899 74.6355 484.616 39.2547 508.287C18.2825 522.323 -1.10202 541.438 -23.3518 548.976C-37.0742 553.629 -51.7173 553.697 -68.4599 545.881C-83.3167 538.949 -94.8897 527.443 -108.33 518.106C-154.871 485.633 -226.834 486.192 -271.747 523.294" stroke="#2870FF" stroke-width="0.552088" stroke-miterlimit="10"/>
<path d="M1994.63 11.9076C1895.83 100.586 1785.86 182.174 1663.83 241.678C1619.91 263.207 1574.5 279.414 1527.61 292.128C1471.79 307.261 1414.23 310.189 1356.23 311.02C1316.61 311.595 1276.76 311.138 1237.06 312.757C1158.69 315.943 1080.56 327.688 1006.58 346.626C963.33 357.698 921.578 371.421 881.756 387.435C853.655 398.739 824.701 411.539 795.181 424.021C753.504 441.445 710.523 457.988 665.994 469.831C650.098 474.126 634.041 477.806 617.884 480.574C550.634 491.914 476.726 461.341 411.122 442.105C393.611 436.97 376.697 432.627 360.599 430.032C294.941 419.451 226.516 425.41 162.063 446.168C150.972 449.728 139.981 453.735 129.103 458.15C90.2928 473.891 52.7662 494.808 17.1186 519.17C-4.02116 533.626 -23.7311 552.844 -46.3767 560.69C-60.3526 565.535 -75.2267 565.806 -92.1754 558.5C-107.339 551.969 -119.386 541.035 -133.233 532.104C-181.129 501.043 -253.677 501.362 -299.853 538.077" stroke="#2870FF" stroke-width="0.552088" stroke-miterlimit="10"/>
<path d="M1989.75 14.6611C1893.61 104.23 1784.92 186.492 1663.58 245.753C1618.79 267.763 1572.45 283.59 1524.83 297.107C1468.37 313.138 1410.04 317.031 1351.21 318.578C1311.01 319.647 1270.55 319.555 1230.23 321.291C1150.62 324.714 1071.2 335.72 995.926 352.968C951.913 363.053 909.424 375.494 868.83 389.947C840.131 400.165 810.65 411.781 780.598 422.924C738.202 438.65 694.472 453.121 649.129 463.969C632.952 467.839 616.631 471.264 600.186 473.846C531.62 484.399 456.521 455.941 389.959 439.171C372.229 434.702 355.103 431.042 338.801 429.078C272.514 421.109 204.024 429.578 139.802 452.639C128.758 456.595 117.813 460.986 106.97 465.78C68.3099 482.873 30.8854 504.989 -5.02909 530.043C-26.3364 544.919 -46.377 564.246 -69.4132 572.392C-83.6427 577.43 -98.7475 577.904 -115.902 571.109C-131.373 564.978 -143.893 554.615 -158.146 546.091C-207.393 516.442 -280.526 516.52 -327.975 552.856" stroke="#2870FF" stroke-width="0.552088" stroke-miterlimit="10"/>
<path d="M1984.86 17.4209C1891.39 107.875 1783.97 190.81 1663.32 249.835C1617.67 272.329 1570.41 287.766 1522.06 302.098C1464.95 319.025 1405.85 323.88 1346.19 326.147C1305.42 327.706 1264.35 327.983 1223.4 329.841C1142.55 333.501 1061.84 343.775 985.269 359.322C940.503 368.414 897.265 379.579 855.904 392.47C826.601 401.603 796.573 411.97 766.021 421.838C722.867 435.781 678.445 448.358 632.266 458.119C615.821 461.596 599.217 464.74 582.494 467.129C512.618 476.895 436.328 450.552 368.801 436.243C350.853 432.44 333.526 429.456 317.009 428.137C250.099 422.778 181.537 433.757 117.547 459.116C106.544 463.462 95.6452 468.243 84.8478 473.411C46.3375 491.849 9.02069 515.165 -27.1658 540.916C-48.6406 556.211 -69.0064 575.647 -92.4387 584.094C-106.916 589.325 -122.268 590.007 -139.624 583.717C-155.407 577.993 -168.395 568.19 -183.049 560.073C-233.652 531.836 -307.37 531.668 -356.082 567.628" stroke="#2870FF" stroke-width="0.552088" stroke-miterlimit="10"/>
<path d="M1979.97 20.1747C1889.16 111.515 1783.02 195.122 1663.06 253.911C1616.55 276.885 1568.37 291.931 1519.27 307.077C1461.52 324.897 1401.66 330.722 1341.17 333.705C1299.82 335.759 1258.14 336.4 1216.55 338.375C1134.48 342.272 1052.46 351.808 974.606 365.665C929.087 373.769 885.1 383.654 842.967 394.983C813.055 403.03 782.479 412.148 751.428 420.747C707.515 432.9 662.406 443.59 615.39 452.263C598.677 455.348 581.79 458.205 564.785 460.407C493.593 469.386 416.124 445.152 347.632 433.309C329.465 430.167 311.931 427.865 295.206 427.184C227.677 424.425 159.034 437.926 95.2811 465.588C84.3186 470.323 73.4665 475.5 62.7144 481.041C24.3541 500.826 -12.8606 525.341 -49.3139 551.783C-70.9563 567.498 -91.6527 587.043 -115.476 595.791C-130.207 601.209 -145.8 602.111 -163.352 596.314C-179.452 590.997 -192.903 581.76 -207.963 574.05C-259.917 547.218 -334.219 546.816 -384.205 582.39" stroke="#2870FF" stroke-width="0.552088" stroke-miterlimit="10"/>
<path d="M1975.08 22.9283C1886.94 115.159 1782.08 199.44 1662.81 257.992C1615.43 281.451 1566.33 296.1 1516.5 312.067C1458.11 330.772 1397.48 337.575 1336.16 341.278C1294.23 343.822 1251.94 344.833 1209.72 346.93C1126.41 351.064 1043.1 359.862 963.949 372.03C917.671 379.141 872.935 387.739 830.042 397.516C799.52 404.473 768.402 412.347 736.852 419.672C692.181 430.041 646.385 438.843 598.527 446.423C581.541 449.116 564.381 451.686 547.093 453.7C474.591 461.893 395.942 439.762 326.475 430.391C308.089 427.91 290.354 426.29 273.42 426.246C205.272 426.076 136.554 442.109 73.0378 472.075C62.122 477.205 51.3158 482.767 40.5984 488.687C2.38805 509.818 -34.7244 535.532 -71.4442 562.671C-93.2541 578.806 -114.276 598.455 -138.495 607.509C-153.48 613.12 -169.319 614.242 -187.061 608.938C-203.479 604.034 -217.394 595.35 -232.86 588.052C-286.169 562.633 -361.056 561.99 -412.305 597.184" stroke="#2870FF" stroke-width="0.552088" stroke-miterlimit="10"/>
<path d="M1970.19 25.6882C1884.71 118.805 1781.13 203.758 1662.55 262.074C1614.3 286.013 1564.28 300.271 1513.71 317.053C1454.68 336.644 1393.28 344.424 1331.13 348.843C1288.63 351.881 1245.72 353.252 1202.88 355.47C1118.34 359.841 1033.73 367.906 953.285 378.373C906.255 384.497 860.77 391.808 817.111 400.035C785.979 405.901 754.314 412.531 722.264 418.582C676.835 427.161 630.352 434.081 581.652 440.568C564.398 442.868 546.955 445.152 529.384 446.979C455.567 454.384 375.736 434.351 305.301 427.464C286.702 425.643 268.755 424.7 251.611 425.3C182.855 427.712 114.051 446.284 50.7662 478.547C39.8911 484.068 29.1313 490.019 18.4595 496.319C-19.6009 518.795 -56.6053 545.714 -93.5974 573.545C-115.569 590.1 -136.927 609.857 -161.537 619.213C-176.775 625.016 -192.861 626.358 -210.799 621.548C-227.54 617.056 -241.912 608.932 -257.785 602.036C-312.445 578.027 -387.922 577.139 -440.439 611.953" stroke="#2870FF" stroke-width="0.552088" stroke-miterlimit="10"/>
<path d="M1965.31 28.4424C1882.49 122.444 1780.19 208.076 1662.3 266.15C1613.19 290.574 1562.24 304.436 1510.94 322.038C1451.26 342.516 1389.1 351.272 1326.11 356.407C1283.03 359.934 1239.52 361.674 1196.04 364.015C1110.27 368.623 1024.36 375.95 942.622 384.728C894.833 389.859 848.599 395.878 804.181 402.558C772.438 407.329 740.226 412.72 707.676 417.502C661.484 424.287 614.32 429.33 564.783 434.73C547.261 436.637 529.535 438.634 511.687 440.273C436.56 446.892 355.554 428.951 284.139 424.547C265.321 423.387 247.172 423.12 229.814 424.364C160.448 429.347 91.5597 450.469 28.5065 485.036C17.6727 490.952 6.95886 497.288 -3.66728 503.966C-41.5777 527.788 -78.48 555.907 -115.733 584.429C-137.873 601.403 -159.556 621.269 -184.562 630.926C-200.054 636.922 -216.385 638.489 -234.515 634.167C-251.578 630.093 -266.423 622.552 -282.687 616.034C-338.751 593.557 -414.759 592.309 -468.55 626.743" stroke="#2870FF" stroke-width="0.552088" stroke-miterlimit="10"/>
<path d="M1960.42 31.1963C1880.27 126.09 1779.23 212.389 1662.04 270.226C1612.06 295.13 1560.2 308.596 1508.17 327.017C1447.84 348.376 1384.91 358.114 1321.09 363.964C1277.43 367.987 1233.31 370.091 1189.2 372.549C1102.2 377.394 1014.99 383.983 931.964 391.07C883.423 395.213 836.427 399.936 791.254 405.07C758.902 408.744 726.142 412.892 693.099 416.405C646.148 421.395 598.298 424.566 547.918 428.868C530.124 430.388 512.125 432.092 493.989 433.545C417.546 439.377 335.364 423.522 262.976 421.607C243.944 421.102 225.588 421.512 208.016 423.411C138.04 430.954 69.062 454.638 6.24551 491.501C-4.542 497.808 -15.2092 504.539 -25.7955 511.591C-63.5559 536.759 -100.356 566.077 -137.876 595.296C-160.183 612.69 -182.197 632.66 -207.593 642.623C-223.333 648.811 -239.921 650.61 -258.237 646.764C-275.628 643.115 -290.926 636.122 -307.596 630.005C-365.01 608.939 -441.609 607.451 -496.663 641.504" stroke="#2870FF" stroke-width="0.552088" stroke-miterlimit="10"/>
<path d="M1955.53 33.9562C1878.04 129.735 1778.28 216.713 1661.78 274.313C1610.94 299.702 1558.15 312.766 1505.38 332.013C1444.42 354.253 1380.72 364.969 1316.07 371.539C1271.84 376.051 1227.11 378.525 1182.37 381.105C1094.13 386.187 1005.62 392.044 921.302 397.436C872.002 400.586 824.256 404.016 778.319 407.605C745.356 410.183 712.049 413.087 678.507 415.331C630.791 418.527 582.261 419.826 531.044 423.029C512.982 424.157 494.7 425.574 476.287 426.845C398.534 431.89 315.176 418.116 241.814 418.701C222.568 418.851 204.005 419.938 186.225 422.486C115.639 432.584 46.5769 458.833 -16.008 498C-26.7544 504.703 -37.3755 511.818 -47.9217 519.249C-85.5318 545.769 -122.225 576.281 -160.017 606.197C-182.491 624.01 -204.83 644.089 -230.622 654.353C-246.616 660.729 -263.461 662.765 -281.962 659.4C-299.675 656.18 -315.431 649.73 -332.508 644.02C-391.273 624.371 -468.457 622.632 -524.784 656.305" stroke="#2870FF" stroke-width="0.552088" stroke-miterlimit="10"/>
<path d="M1950.64 36.7097C1875.82 133.374 1777.23 220.794 1661.53 278.389C1609.78 304.155 1556.1 316.92 1502.61 336.992C1441 360.107 1376.54 371.811 1311.06 379.102C1266.25 384.109 1220.9 386.948 1175.53 389.644C1086.07 394.963 996.264 400.081 910.649 403.778C860.596 405.941 812.095 408.062 765.398 410.116C731.825 411.593 697.97 413.253 663.935 414.239C615.455 415.64 566.25 415.068 514.185 417.173C495.856 417.913 477.29 419.038 458.594 420.122C379.526 424.38 294.996 412.682 220.656 415.767C201.196 416.572 182.427 418.335 164.432 421.532C93.2361 434.18 24.09 463.001 -38.2581 504.466C-48.9637 511.558 -59.5384 519.063 -70.039 526.873C-107.499 554.739 -144.09 586.45 -182.148 617.058C-204.791 635.291 -227.461 655.478 -253.643 666.043C-269.891 672.612 -286.986 674.885 -305.674 671.997C-323.714 669.206 -339.923 663.299 -357.4 657.995C-417.515 639.763 -495.29 637.779 -552.88 671.071" stroke="#2870FF" stroke-width="0.552088" stroke-miterlimit="10"/>
<path d="M1945.75 39.4643C1873.6 137.019 1776.28 225.107 1661.27 282.465C1608.65 308.712 1554.06 321.075 1499.83 341.972C1437.57 365.963 1372.34 378.654 1306.04 386.661C1260.65 392.157 1214.69 395.365 1168.69 398.184C1077.99 403.734 986.889 408.126 899.981 410.127C849.169 411.297 799.912 412.116 752.462 412.635C718.272 413.005 683.876 413.432 649.342 413.149C600.097 412.75 550.212 410.317 497.305 411.318C478.702 411.672 459.864 412.51 440.885 413.401C360.507 416.872 274.801 407.249 199.482 412.834C179.803 414.294 160.832 416.734 142.623 420.581C70.8105 435.766 1.5869 467.17 -60.5297 510.938C-71.1889 518.421 -81.7173 526.315 -92.1777 534.504C-129.488 563.716 -165.976 596.632 -204.302 627.932C-227.111 646.579 -250.107 666.875 -276.685 677.747C-293.186 684.508 -310.537 687.024 -329.406 684.606C-347.779 682.251 -364.431 676.874 -382.319 671.978C-443.785 655.158 -522.144 652.933 -581.008 685.84" stroke="#2870FF" stroke-width="0.552088" stroke-miterlimit="10"/>
<path d="M1940.87 42.2231C1871.37 140.664 1775.33 229.43 1661.02 286.546C1607.53 313.272 1552.01 325.233 1497.06 346.962C1434.15 371.828 1368.16 385.507 1301.02 394.229C1255.06 400.22 1208.5 403.793 1161.86 406.728C1069.93 412.515 977.532 416.168 889.329 416.48C837.764 416.663 787.751 416.173 739.542 415.157C704.742 414.426 669.798 413.609 634.765 412.062C584.761 409.858 534.191 405.57 480.446 405.467C461.576 405.433 442.455 405.979 423.199 406.683C341.504 409.367 254.627 401.808 178.33 409.905C158.437 412.014 139.259 415.13 120.837 419.638C48.4126 437.356 -20.8992 471.349 -82.7787 517.42C-93.3967 525.298 -103.879 533.582 -114.294 542.145C-151.454 572.702 -187.835 606.818 -226.432 638.814C-249.41 657.881 -272.73 678.286 -299.705 689.459C-316.459 696.413 -334.066 699.177 -353.121 697.224C-371.821 695.305 -388.926 690.465 -407.221 685.976C-470.038 670.567 -548.987 668.097 -609.114 700.628" stroke="#2870FF" stroke-width="0.552088" stroke-miterlimit="10"/>
<path d="M1935.98 44.9776C1869.15 144.304 1774.5 233.974 1660.76 290.623C1606.46 317.941 1549.96 329.388 1494.27 351.942C1430.72 377.683 1363.97 392.35 1296 401.788C1249.46 408.268 1202.29 412.205 1155.02 415.268C1061.85 421.292 968.158 424.207 878.666 422.824C826.342 422.013 775.578 420.215 726.605 417.67C691.193 415.826 655.703 413.777 620.177 410.972C569.409 406.967 518.159 400.818 463.571 399.612C444.433 399.191 425.028 399.445 405.49 399.961C322.485 401.859 234.431 396.364 157.156 406.977C137.049 409.742 117.659 413.529 99.0339 418.691C25.9919 438.937 -43.3966 475.523 -105.045 523.892C-115.617 532.16 -126.058 540.835 -136.433 549.776C-173.443 581.68 -209.721 616.995 -248.586 649.683C-271.731 669.169 -295.382 689.683 -322.741 701.157C-339.744 708.298 -357.612 711.316 -376.849 709.822C-395.875 708.343 -413.426 703.996 -432.136 699.953C-496.277 685.826 -575.837 683.245 -637.237 715.391" stroke="#2870FF" stroke-width="0.552088" stroke-miterlimit="10"/>
<path d="M1931.09 47.7323C1866.93 147.949 1773.55 238.293 1660.5 294.705C1605.34 322.503 1547.92 333.548 1491.5 356.932C1427.29 383.544 1359.78 399.198 1290.98 409.363C1243.87 416.338 1196.08 420.639 1148.18 423.819C1053.78 430.08 958.789 432.263 868.003 429.184C814.927 427.386 763.407 424.274 713.674 420.2C677.652 417.248 641.62 413.955 605.59 409.892C554.062 404.082 502.128 396.078 446.702 393.768C427.297 392.96 407.613 392.921 387.792 393.251C303.472 394.361 214.24 390.92 135.999 404.055C115.673 407.469 96.0802 411.927 77.2419 417.749C3.57665 440.518 -65.8828 479.703 -127.3 530.375C-137.83 539.038 -148.22 548.097 -158.555 557.412C-195.415 590.662 -231.586 627.176 -270.722 660.561C-294.035 680.468 -318.011 701.085 -345.767 712.865C-363.023 720.199 -381.146 723.47 -400.565 722.436C-419.918 721.403 -437.922 717.577 -457.038 713.94C-522.53 701.225 -602.68 698.404 -665.349 730.17" stroke="#2870FF" stroke-width="0.552088" stroke-miterlimit="10"/>
<path d="M1926.21 50.4919C1864.71 151.594 1772.61 242.611 1660.25 298.786C1604.22 327.07 1545.87 337.702 1488.73 361.917C1423.87 389.399 1355.6 406.046 1285.97 416.926C1238.28 424.391 1189.88 429.062 1141.36 432.363C1045.72 438.861 949.432 440.306 857.357 435.537C803.522 432.746 751.256 428.32 700.76 422.722C664.127 418.658 627.548 414.132 591.024 408.806C538.731 401.184 486.118 391.337 429.849 387.923C410.172 386.728 390.21 386.396 370.106 386.539C284.47 386.862 194.06 385.475 114.848 401.131C94.3066 405.19 74.5018 410.325 55.4556 416.807C-18.8336 442.087 -88.3633 483.881 -149.543 536.851C-160.033 545.905 -170.376 555.353 -180.666 565.048C-217.376 599.643 -253.444 637.362 -292.842 671.433C-316.322 691.759 -340.629 712.485 -368.776 724.566C-386.286 732.093 -404.658 735.623 -424.27 735.044C-443.948 734.463 -462.408 731.156 -481.93 727.927C-548.778 716.618 -629.507 713.556 -693.444 744.947" stroke="#2870FF" stroke-width="0.552088" stroke-miterlimit="10"/>
<path d="M1921.32 53.2457C1862.48 155.234 1771.66 246.923 1659.99 302.862C1603.1 331.625 1543.81 341.851 1485.94 366.902C1420.44 395.254 1351.4 412.895 1280.94 424.49C1232.67 432.45 1183.67 437.485 1134.51 440.903C1037.64 447.638 940.052 448.35 846.682 441.881C792.095 438.102 739.072 432.357 687.817 425.235C650.578 420.058 613.447 414.294 576.425 407.715C523.373 398.288 470.075 386.591 412.969 382.067C393.023 380.485 372.778 379.862 352.397 379.817C265.451 379.353 173.858 380.02 93.6736 398.203C72.9131 402.911 52.9065 408.717 33.6468 415.86C-41.2719 443.652 -110.872 488.056 -171.815 543.328C-182.258 552.778 -192.56 562.616 -202.804 572.684C-239.364 608.63 -275.331 647.544 -314.995 682.311C-338.643 703.058 -363.275 723.892 -391.817 736.28C-409.581 743.999 -428.208 747.789 -448.002 747.663C-468.012 747.534 -486.921 744.743 -506.849 741.926C-575.047 732.028 -656.367 728.726 -721.572 759.731" stroke="#2870FF" stroke-width="0.552088" stroke-miterlimit="10"/>
<path d="M1916.43 55.9992C1860.26 158.878 1770.71 251.241 1659.74 306.938C1601.98 336.186 1541.77 345.999 1483.17 371.881C1417.01 401.103 1347.22 419.737 1275.93 432.047C1227.08 440.496 1177.47 445.901 1127.68 449.441C1029.58 456.414 930.694 456.388 836.036 448.228C780.689 443.457 726.922 436.397 674.903 427.752C637.053 421.462 599.379 414.459 561.854 406.623C508.042 395.384 454.06 381.844 396.11 376.211C375.892 374.247 355.374 373.326 334.705 373.094C246.443 371.844 153.666 374.558 72.5158 395.269C51.5408 400.621 31.322 407.104 11.8602 414.912C-63.6934 445.215 -133.353 492.229 -194.064 549.799C-204.467 559.638 -214.717 569.867 -224.927 580.314C-261.342 617.607 -297.195 657.719 -337.132 693.184C-360.942 714.349 -385.91 735.288 -414.843 747.982C-432.86 755.894 -451.741 759.948 -471.718 760.265C-492.054 760.594 -511.417 758.317 -531.752 755.901C-601.307 747.416 -683.205 743.873 -749.678 774.498" stroke="#2870FF" stroke-width="0.552088" stroke-miterlimit="10"/>
<path d="M1911.54 58.7591C1858.03 162.524 1769.76 255.559 1659.48 311.025C1600.85 340.753 1539.72 350.154 1480.39 376.878C1413.58 406.964 1343.03 426.596 1270.91 439.627C1221.49 448.571 1171.25 454.341 1120.84 457.998C1021.51 465.207 921.321 464.443 825.368 454.594C769.269 448.835 714.75 440.45 661.962 430.287C623.506 422.885 585.286 414.643 547.261 405.549C492.695 392.499 438.018 377.115 379.23 370.373C358.745 368.022 337.943 366.808 316.997 366.389C227.425 364.351 133.458 369.109 51.3426 392.353C30.1479 398.354 9.71634 405.509 -9.94781 413.976C-86.1371 446.781 -155.855 496.414 -216.335 556.288C-226.696 566.523 -236.901 577.136 -247.065 587.962C-283.33 626.6 -319.081 667.912 -359.284 704.068C-383.262 725.654 -408.555 746.701 -437.884 759.696C-456.149 767.795 -475.285 772.12 -495.456 772.886C-516.111 773.671 -535.935 771.904 -556.67 769.901C-627.581 762.827 -710.064 759.044 -777.806 789.283" stroke="#2870FF" stroke-width="0.552088" stroke-miterlimit="10"/>
<path d="M1906.65 61.5129C1855.81 166.163 1768.81 259.877 1659.23 315.101C1599.74 345.314 1537.67 354.302 1477.61 381.857C1410.15 412.808 1338.85 433.438 1265.89 447.185C1215.89 456.618 1165.05 462.752 1114 466.537C1013.44 473.983 911.958 472.486 814.71 460.936C757.852 454.184 702.587 444.48 649.035 432.799C609.974 424.278 571.201 414.804 532.679 404.458C477.353 389.596 421.992 372.374 362.366 364.516C341.608 361.784 320.528 360.278 299.299 359.671C208.412 356.848 113.26 363.642 30.1851 389.424C8.77044 396.069 -11.8685 403.895 -31.7402 413.028C-108.571 448.334 -178.341 500.587 -238.584 562.764C-248.899 573.389 -259.063 584.392 -269.181 595.597C-305.297 635.581 -340.946 678.093 -381.415 714.946C-405.56 736.951 -431.185 758.107 -460.904 771.403C-479.423 779.695 -498.808 784.29 -519.166 785.499C-540.147 786.746 -560.426 785.489 -581.568 783.887C-653.829 778.225 -736.903 774.197 -805.907 804.06" stroke="#2870FF" stroke-width="0.552088" stroke-miterlimit="10"/>
<path d="M1901.77 64.2672C1853.59 169.808 1767.87 264.19 1658.97 319.177C1598.61 349.87 1535.56 358.328 1474.83 386.836C1406.66 418.523 1334.66 440.276 1260.87 454.743C1210.3 464.672 1158.85 471.17 1107.17 475.071C1005.38 482.754 902.594 480.519 804.052 467.279C746.442 459.54 690.43 448.51 636.11 435.311C596.442 425.672 557.122 414.965 518.101 403.361C462.022 386.687 405.95 367.745 345.501 358.655C324.467 355.575 303.118 353.737 281.606 352.944C189.409 349.333 93.0624 358.171 9.02737 386.49C-12.6072 393.78 -33.4529 402.282 -53.5326 412.076C-131.004 449.883 -200.834 504.756 -260.84 569.23C-271.114 580.245 -281.225 591.643 -291.309 603.222C-327.275 644.553 -362.816 688.268 -403.558 725.813C-427.87 748.238 -453.82 769.498 -483.935 783.101C-502.708 791.585 -522.341 796.449 -542.888 798.102C-564.194 799.812 -584.928 799.064 -606.476 797.869C-680.094 793.619 -763.746 789.35 -834.024 818.834" stroke="#2870FF" stroke-width="0.552088" stroke-miterlimit="10"/>
<path d="M1896.88 67.0271C1851.36 173.454 1766.92 268.508 1658.72 323.259C1597.49 354.437 1533.51 362.493 1472.05 391.827C1403.23 424.39 1330.47 447.13 1255.86 462.313C1204.7 472.731 1152.64 479.598 1100.33 483.621C997.303 491.542 893.226 488.575 793.395 473.639C735.026 464.907 678.274 452.556 623.184 437.84C582.911 427.082 543.068 415.07 503.52 402.281C446.718 383.694 389.918 362.999 328.638 352.811C307.336 349.343 285.703 347.213 263.909 346.233C170.396 341.835 72.8595 352.711 -12.1353 383.567C-33.9899 391.502 -55.0483 400.676 -75.3242 411.139C-153.443 451.443 -223.319 508.941 -283.094 575.718C-293.327 587.129 -303.393 598.911 -313.431 610.869C-349.246 653.545 -384.685 698.461 -425.694 736.697C-450.174 759.542 -476.449 780.91 -506.96 794.814C-525.986 803.491 -545.868 808.626 -566.609 810.716C-588.235 812.894 -609.43 812.645 -631.384 811.862C-706.352 809.023 -790.595 804.509 -862.141 833.612" stroke="#2870FF" stroke-width="0.552088" stroke-miterlimit="10"/>
<path d="M1891.99 69.7805C1849.14 177.093 1765.98 272.826 1658.47 327.34C1596.38 358.997 1531.47 366.652 1469.28 396.811C1399.82 430.255 1326.29 453.977 1250.85 469.881C1199.12 480.793 1146.44 488.026 1093.5 492.165C989.236 500.323 883.863 496.618 782.737 479.992C723.616 470.273 666.118 456.591 610.254 440.363C569.379 428.486 528.984 415.247 488.932 401.201C431.371 380.808 373.887 358.258 311.763 346.966C290.189 343.112 268.277 340.689 246.206 339.521C151.383 334.336 52.6453 347.245 -33.3034 380.645C-55.3779 389.223 -76.6491 399.068 -97.1271 410.197C-175.898 452.997 -245.816 513.12 -305.36 582.195C-315.546 593.996 -325.571 606.168 -335.564 618.505C-371.229 662.527 -406.566 708.642 -447.836 747.575C-472.483 770.839 -499.089 792.317 -529.991 806.522C-549.27 815.391 -569.401 820.801 -590.33 823.329C-612.275 825.981 -633.932 826.231 -656.292 825.85C-732.616 824.422 -817.439 819.667 -890.253 848.39" stroke="#2870FF" stroke-width="0.552088" stroke-miterlimit="10"/>
<path d="M1887.1 72.5344C1846.92 180.737 1765.03 277.138 1658.2 331.416C1595.25 363.559 1529.42 370.806 1466.5 401.796C1396.38 436.115 1322.09 460.825 1245.82 477.444C1193.52 488.852 1140.23 496.448 1086.66 500.71C981.169 509.104 874.494 504.661 772.08 486.34C712.199 475.628 653.961 460.626 597.328 442.88C555.848 429.885 514.907 415.424 474.355 400.109C416.041 377.915 357.86 353.506 294.905 341.115C273.063 336.874 250.868 334.159 228.514 332.804C132.376 326.832 32.4422 341.779 -54.4553 377.715C-76.7553 386.939 -98.2338 397.455 -118.914 409.249C-198.338 454.54 -268.297 517.293 -327.609 588.671C-337.754 600.868 -347.728 613.424 -357.68 626.14C-393.196 671.514 -428.425 718.822 -469.967 758.453C-494.782 782.136 -521.713 803.717 -553.01 818.229C-572.538 827.285 -592.917 832.982 -614.04 835.942C-636.305 839.062 -658.423 839.81 -681.189 839.842C-758.869 839.826 -844.276 834.831 -918.359 863.168" stroke="#2870FF" stroke-width="0.552088" stroke-miterlimit="10"/>
<path d="M1882.21 75.2944C1844.7 184.383 1764.08 281.462 1657.95 335.497C1594.13 368.12 1527.37 374.966 1463.72 406.781C1392.96 441.976 1317.9 467.674 1240.8 485.008C1187.92 496.905 1134.02 504.871 1079.82 509.256C973.09 517.881 865.12 512.711 761.411 492.695C700.778 480.995 641.826 464.571 584.392 445.41C542.334 431.228 500.818 415.608 459.762 399.03C400.689 375.036 341.822 348.761 278.025 335.271C255.91 330.643 233.442 327.635 210.805 326.093C113.357 319.335 12.1518 336.158 -75.6287 374.799C-98.1679 384.623 -119.84 395.854 -140.722 408.314C-220.804 456.102 -290.805 521.479 -349.875 595.154C-359.979 607.741 -369.906 620.693 -379.819 633.782C-415.184 680.502 -450.311 729.01 -492.12 769.332C-517.102 793.43 -544.364 815.125 -576.052 829.937C-595.834 839.187 -616.455 845.158 -637.778 848.557C-660.356 852.155 -682.941 853.398 -706.113 853.836C-785.144 855.232 -871.136 849.991 -946.487 877.953" stroke="#2870FF" stroke-width="0.552088" stroke-miterlimit="10"/>
<path d="M1877.33 78.0485C1842.47 188.023 1763.13 285.775 1657.69 339.574C1593.01 372.681 1525.32 379.126 1460.95 411.766C1389.53 447.837 1313.72 474.517 1235.78 492.572C1182.32 504.964 1127.82 513.294 1072.98 517.795C965.023 526.658 855.751 520.75 750.748 499.044C689.362 486.351 629.665 468.624 571.461 447.928C528.798 432.639 486.735 415.78 445.18 397.945C385.353 372.15 325.791 344.015 261.155 329.422C238.773 324.401 216.022 321.106 193.108 319.377C94.344 311.831 -8.04953 330.72 -96.7914 371.871C-119.55 382.351 -141.46 394.205 -162.514 407.367C-243.358 457.486 -313.291 525.652 -372.13 601.632C-382.187 614.614 -392.073 627.95 -401.941 641.413C-437.156 689.478 -472.175 739.191 -514.256 780.205C-539.407 804.723 -566.993 826.527 -599.078 841.64C-619.113 851.082 -639.977 857.334 -661.494 861.16C-684.385 865.231 -707.438 866.967 -731.011 867.812C-811.398 870.62 -897.974 865.138 -974.593 892.72" stroke="#2870FF" stroke-width="0.552088" stroke-miterlimit="10"/>
<path d="M1872.44 80.8032C1840.25 191.668 1762.18 290.088 1657.44 343.65C1591.89 377.238 1523.27 383.281 1458.16 416.747C1386.1 453.698 1309.53 481.36 1230.76 500.131C1176.72 513.012 1121.61 521.707 1066.15 526.335C956.95 535.435 846.382 528.789 740.09 505.388C677.945 491.707 617.504 472.671 558.535 450.44C515.267 434.049 472.651 415.953 430.597 396.848C370.011 369.253 309.763 339.258 244.291 323.561C221.635 318.153 198.606 314.566 175.409 312.649C75.3354 304.317 -28.2515 325.276 -117.955 368.932C-140.933 380.062 -163.056 392.593 -184.312 406.414C-265.79 459.079 -335.784 529.816 -394.391 608.098C-404.408 621.47 -414.242 635.196 -424.069 649.038C-459.135 698.45 -494.051 749.362 -536.399 791.072C-561.717 816.01 -589.634 837.917 -622.109 853.337C-642.398 862.972 -663.499 869.505 -685.216 873.763C-708.421 878.313 -731.941 880.543 -755.919 881.794C-837.657 886.008 -924.818 880.292 -1002.71 907.488" stroke="#2870FF" stroke-width="0.552088" stroke-miterlimit="10"/>
<path d="M1867.55 83.5619C1838.03 195.312 1761.24 294.411 1657.18 347.737C1590.77 381.809 1521.22 387.445 1455.39 421.736C1382.68 459.563 1305.34 488.213 1225.74 507.705C1171.13 521.081 1115.4 530.14 1059.31 534.885C948.883 544.222 837.02 536.843 729.428 511.747C666.53 497.073 605.338 476.734 545.599 452.969C501.725 435.471 458.563 416.136 416.005 395.768C354.665 366.372 293.72 334.512 227.411 317.716C204.488 311.921 181.181 308.047 157.701 305.938C56.3116 296.819 -48.4632 319.849 -139.128 366.015C-162.326 377.8 -184.655 391.007 -206.12 405.478C-288.236 460.688 -358.286 534 -416.661 614.586C-426.637 628.349 -436.425 642.465 -446.207 656.685C-481.122 707.443 -515.937 759.555 -558.551 801.956C-584.037 827.314 -612.28 849.33 -645.151 865.051C-665.693 874.879 -687.022 881.735 -708.954 886.383C-732.463 891.455 -756.459 894.129 -780.843 895.793C-863.937 901.418 -951.683 895.462 -1030.84 922.278" stroke="#2870FF" stroke-width="0.552088" stroke-miterlimit="10"/>
<path d="M1862.66 86.3166C1835.8 198.953 1760.29 298.724 1656.93 351.813C1589.65 386.366 1519.18 391.6 1452.61 426.722C1379.25 465.424 1301.15 495.062 1220.72 515.269C1056.9 556.431 882.965 558.494 718.77 518.096C608.321 490.92 503.066 445.738 401.428 394.677C339.329 363.481 277.699 329.761 210.552 311.86C87.108 278.954 -47.4535 303.153 -160.281 363.081C-273.108 423.009 -365.543 516.463 -438.906 621.057C-505.485 715.97 -563.719 826.434 -668.165 876.753C-787.618 934.299 -932.975 895.639 -1058.93 937.045" stroke="#2870FF" stroke-width="0.552088" stroke-miterlimit="10"/>
<path d="M1650.22 800.958C1642.9 661.161 1584.82 524.566 1489.23 422.301C1462.03 393.207 1430.57 366.055 1392.33 354.927C1281.84 322.782 1171.71 414.896 1083.83 468.771C977.79 533.781 873.158 601.508 762.03 657.713C699.642 689.267 625.808 717.346 561.814 689.193C497.011 660.682 468.431 586.697 438.391 522.588C403.388 447.885 357.154 376.7 292.587 325.351C228.02 274.002 143.204 244.322 61.9119 258.381C-1.74681 269.394 -58.1303 305.543 -109.213 345.096C-243.43 449.028 -354.65 582.491 -432.678 733.254" stroke="#2870FF" stroke-width="0.552088" stroke-miterlimit="10"/>
<path d="M1653.35 794.7C1646.88 671.146 1595.94 552.993 1512.48 454.128C1504.73 444.946 1496.78 435.937 1488.53 427.206C1461.4 398.529 1430.21 371.729 1392.49 360.464C1283.41 327.838 1174.77 415.402 1086.91 467.539C1009.02 513.763 931.843 562.256 851.571 606.798C823.726 622.306 795.601 637.323 767.061 651.613C705.152 682.607 632.192 710.316 568.753 683.628C504.518 656.602 475.343 585.586 444.746 524.095C409.087 452.448 362.551 384.158 298.232 334.929C275.838 317.789 251.062 303.176 224.872 291.986C175.867 271.034 121.908 262.05 69.3948 270.92C6.31686 281.576 -49.7241 316.381 -100.568 354.26C-203.507 430.899 -292.916 523.645 -364.86 628.555C-386.33 659.858 -406.241 692.237 -424.475 725.602" stroke="#2870FF" stroke-width="0.552088" stroke-miterlimit="10"/>
<path d="M1656.48 788.449C1650.22 669.014 1597.38 557.699 1511.71 458.601C1503.94 449.609 1496.04 440.718 1487.82 432.123C1460.75 403.868 1429.84 377.417 1392.64 366.009C1284.96 332.898 1177.82 415.915 1089.98 466.319C1012.82 510.596 936.269 557.894 855.988 601.6C828.332 616.771 800.406 631.493 772.087 645.526C710.659 675.965 638.566 703.299 575.688 678.075C512.021 652.53 482.25 584.483 451.102 525.615C414.792 457.022 367.944 391.629 303.879 344.524C281.569 328.126 256.949 314.15 230.962 303.467C182.353 283.453 128.913 274.902 76.8846 283.477C14.3877 293.78 -41.3056 327.237 -91.9165 363.437C-194.426 436.663 -283.509 524.599 -355.964 624.922C-377.586 654.857 -397.724 685.884 -416.265 717.962" stroke="#2870FF" stroke-width="0.552088" stroke-miterlimit="10"/>
<path d="M1659.61 782.193C1653.56 666.876 1598.85 562.398 1510.95 463.069C1503.15 454.255 1495.31 445.488 1487.13 437.035C1460.12 409.196 1429.48 383.104 1392.81 371.553C1286.54 337.961 1180.91 416.431 1093.07 465.094C1016.64 507.427 940.61 553.337 860.423 596.402C832.919 611.176 805.227 625.663 777.125 639.439C716.175 669.317 644.95 696.281 582.639 672.522C519.54 648.457 489.173 583.384 457.469 527.133C420.503 461.596 373.353 399.098 309.541 354.113C287.311 338.456 262.852 325.118 237.068 314.937C188.848 295.861 135.938 287.741 84.3848 296.027C22.4691 305.979 -32.8766 338.086 -83.2543 372.607C-185.339 442.427 -274.091 525.547 -347.057 621.288C-368.83 649.855 -389.191 679.53 -408.038 710.327" stroke="#2870FF" stroke-width="0.552088" stroke-miterlimit="10"/>
<path d="M1662.73 775.941C1656.9 664.743 1600.35 567.09 1510.18 467.541C1502.36 458.911 1494.56 450.263 1486.41 441.952C1459.46 414.535 1429.11 388.79 1392.96 377.096C1288.1 343.024 1184 416.958 1096.13 463.874C1020.46 504.274 944.998 548.915 864.835 591.204C837.508 605.624 810.031 619.832 782.145 633.352C721.676 662.674 651.324 689.269 589.568 666.968C527.036 644.389 496.075 582.285 463.814 528.653C426.191 466.171 378.74 406.562 315.176 363.702C293.03 348.782 268.733 336.086 243.146 326.407C195.322 308.275 142.937 300.587 91.8571 308.572C30.5166 318.168 -24.4811 348.932 -74.6202 381.772C-176.275 448.18 -264.7 526.489 -338.184 617.644C-360.114 644.844 -380.697 673.166 -399.851 702.677" stroke="#2870FF" stroke-width="0.552088" stroke-miterlimit="10"/>
<path d="M1665.85 769.686C1660.24 662.606 1601.87 571.77 1509.41 472.01C1501.57 463.558 1493.81 455.04 1485.71 446.864C1458.83 419.864 1428.75 394.473 1393.12 382.641C1289.66 348.089 1187.11 417.49 1099.2 462.655C1024.3 501.138 949.404 544.5 869.258 586.013C842.109 600.079 814.841 614.008 787.177 627.271C727.188 656.032 657.703 682.258 596.508 661.422C534.545 640.323 502.993 581.193 470.17 530.178C431.896 470.746 384.138 414.038 320.822 373.304C298.762 359.125 274.62 347.067 249.236 337.89C201.808 320.695 149.942 313.44 99.3471 321.135C38.5877 330.379 -16.0619 359.799 -65.9679 390.96C-167.193 453.962 -255.292 527.455 -329.287 614.028C-351.369 639.86 -372.179 666.83 -391.639 695.054" stroke="#2870FF" stroke-width="0.552088" stroke-miterlimit="10"/>
<path d="M1668.98 763.428C1663.59 660.467 1603.43 576.43 1508.65 476.471C1500.8 468.196 1493.08 459.803 1485.01 451.769C1458.19 425.191 1428.38 400.148 1393.28 388.173C1291.23 353.141 1190.24 418.014 1102.28 461.418C1028.16 497.994 953.808 540.066 873.681 580.798C846.709 594.51 819.65 608.161 792.208 621.161C732.698 649.367 664.086 675.218 603.447 655.846C542.051 636.227 509.905 580.071 476.525 531.675C437.594 475.298 389.535 421.485 326.467 382.871C304.491 369.433 280.51 358.012 255.324 349.343C208.286 333.087 156.95 326.263 106.83 333.663C46.6513 342.556 -7.65623 370.627 -57.3237 400.108C-158.119 459.698 -245.892 528.38 -320.398 610.366C-342.637 634.831 -363.67 660.448 -383.431 687.386" stroke="#2870FF" stroke-width="0.552088" stroke-miterlimit="10"/>
<path d="M1672.11 757.177C1666.93 658.335 1605 581.089 1507.87 480.944C1500.01 472.842 1492.33 464.579 1484.3 456.687C1457.54 430.525 1428.01 405.836 1393.43 393.723C1292.79 358.206 1193.37 418.572 1105.35 460.204C1032.03 494.883 958.22 535.66 878.099 575.612C851.304 588.976 824.454 602.337 797.235 615.085C738.204 642.73 670.461 668.212 610.382 650.304C549.554 632.172 516.812 578.979 482.882 533.205C443.3 479.884 394.934 428.966 332.119 392.477C310.228 379.775 286.403 368.997 261.419 360.83C214.777 345.511 163.966 339.125 114.32 346.23C54.7222 354.766 0.762736 381.494 -48.6771 409.296C-149.042 465.479 -236.489 529.346 -311.513 606.75C-333.902 629.847 -355.163 654.112 -375.231 679.764" stroke="#2870FF" stroke-width="0.552088" stroke-miterlimit="10"/>
<path d="M1675.24 750.92C1670.27 656.196 1606.61 585.724 1507.11 485.411C1499.25 477.48 1491.6 469.354 1483.6 461.597C1456.91 435.858 1427.65 411.522 1393.59 399.266C1294.36 363.268 1196.54 419.128 1108.43 458.978C1035.92 491.776 962.631 531.242 882.527 570.408C855.916 583.417 829.27 596.5 802.266 608.991C743.716 636.082 676.845 661.188 617.322 644.75C557.062 628.098 523.724 577.879 489.238 534.724C448.999 484.458 400.326 436.436 337.765 402.065C315.958 390.106 292.295 379.965 267.508 372.3C221.262 357.925 170.976 351.965 121.803 358.781C62.7871 366.965 9.17521 392.344 -40.0312 418.472C-139.966 471.243 -227.087 530.299 -302.622 603.117C-325.169 624.845 -346.652 647.752 -367.027 672.129" stroke="#2870FF" stroke-width="0.552088" stroke-miterlimit="10"/>
<path d="M1678.36 744.663C1673.61 654.058 1608.23 590.341 1506.34 489.878C1498.47 482.119 1490.86 474.124 1482.9 466.509C1456.26 441.186 1427.29 417.203 1393.75 404.804C1295.92 368.327 1199.71 419.694 1111.51 457.753C1039.82 488.685 967.048 526.836 886.95 565.21C860.516 577.876 834.079 590.67 807.298 602.904C749.227 629.433 683.224 654.171 624.263 639.197C564.57 624.025 530.637 576.781 495.594 536.243C454.699 489.032 405.724 443.906 343.411 411.66C321.689 400.442 298.182 390.938 273.598 383.775C227.742 370.339 177.98 364.817 129.293 371.331C70.857 379.159 17.5877 403.194 -31.38 427.642C-130.885 477.007 -217.68 531.247 -293.726 599.483C-316.424 619.844 -338.136 641.399 -358.811 664.488" stroke="#2870FF" stroke-width="0.552088" stroke-miterlimit="10"/>
<path d="M1681.49 738.412C1676.96 651.926 1609.89 594.952 1505.58 494.346C1497.7 486.754 1490.12 478.894 1482.19 471.416C1455.62 446.515 1426.92 422.88 1393.9 410.344C1297.48 373.386 1202.89 420.271 1114.57 456.523C1043.72 485.605 971.459 522.425 891.362 560.003C865.111 572.32 838.878 584.83 812.318 596.807C754.727 622.781 689.596 647.143 631.191 633.634C572.066 619.943 537.538 575.673 501.938 537.752C460.392 493.597 411.111 451.366 349.046 421.24C327.408 410.758 304.056 401.892 279.675 395.236C234.215 382.737 184.978 377.648 136.765 383.872C78.9047 391.349 25.9886 414.035 -22.746 436.804C-121.821 482.757 -208.29 532.18 -284.854 595.835C-307.703 614.828 -329.642 635.031 -350.624 656.834" stroke="#2870FF" stroke-width="0.552088" stroke-miterlimit="10"/>
<path d="M1684.62 732.155C1680.3 649.788 1611.57 599.532 1504.81 498.813C1496.93 491.386 1489.37 483.669 1481.49 476.326C1454.98 451.842 1426.55 428.561 1394.07 415.881C1299.05 378.443 1206.1 420.868 1117.65 455.297C1047.65 482.545 975.881 518.018 895.791 554.804C869.723 566.778 843.693 578.999 817.355 590.719C760.244 616.132 695.981 640.131 638.142 628.08C579.585 615.874 544.467 574.567 508.306 539.276C466.103 498.17 416.52 458.84 354.708 430.834C333.156 421.093 309.965 412.864 285.781 406.716C240.717 395.155 192.005 390.497 144.265 396.427C86.9864 403.552 34.4125 424.889 -14.0832 445.984C-112.728 488.53 -198.872 533.138 -275.947 592.206C-298.953 609.831 -321.114 628.681 -342.397 649.198" stroke="#2870FF" stroke-width="0.552088" stroke-miterlimit="10"/>
<path d="M1687.74 725.905C1683.64 647.656 1613.28 604.096 1504.04 503.287C1496.17 496.026 1488.65 488.428 1480.78 481.244C1454.38 457.129 1426.19 434.254 1394.22 421.431C1300.61 383.508 1209.31 421.488 1120.73 454.083C1051.59 479.519 980.305 513.634 900.214 549.612C874.33 561.243 848.508 573.169 822.381 584.632C765.75 609.49 702.36 633.114 645.077 622.528C587.087 611.803 551.374 573.469 514.662 540.796C471.802 502.746 421.918 466.31 360.355 440.429C338.886 431.43 315.852 423.839 291.871 418.192C247.197 407.575 199.009 403.35 151.755 408.984C95.0567 415.752 42.8309 435.746 -5.43169 455.161C-103.647 494.295 -189.464 534.092 -267.05 588.578C-290.208 604.836 -312.597 622.334 -334.187 641.569" stroke="#2870FF" stroke-width="0.552088" stroke-miterlimit="10"/>
<path d="M1690.87 719.648C1686.98 645.518 1615.01 608.628 1503.27 507.754C1495.41 500.653 1487.91 493.203 1480.08 486.155C1453.74 462.457 1425.82 439.935 1394.38 426.97C1302.17 388.566 1212.54 422.122 1123.8 452.852C1055.54 476.491 984.723 509.233 904.637 544.409C878.942 555.696 853.318 567.333 827.413 578.539C771.261 602.836 708.739 626.091 652.016 616.968C594.595 607.724 558.286 572.365 521.017 542.309C477.507 507.314 427.316 473.774 366 450.013C344.611 441.75 321.744 434.801 297.954 429.657C253.676 419.978 206.013 416.184 159.232 421.524C103.115 427.941 51.2371 446.585 3.2077 464.32C-94.5777 500.048 -180.069 535.029 -258.172 584.929C-281.486 599.819 -304.098 615.964 -325.994 633.913" stroke="#2870FF" stroke-width="0.552088" stroke-miterlimit="10"/>
<path d="M1693.99 713.391C1690.33 643.379 1616.77 613.138 1502.5 512.221C1494.64 505.28 1487.17 497.973 1479.37 491.066C1453.1 467.784 1425.46 445.616 1394.53 432.513C1303.74 393.629 1215.79 422.778 1126.87 451.632C1059.5 473.495 989.152 504.847 909.055 539.211C883.543 550.155 858.122 561.502 832.439 572.451C776.767 596.193 715.118 619.073 658.951 611.415C602.097 603.656 565.193 571.266 527.368 543.828C483.201 511.889 432.703 481.244 371.641 459.608C350.336 452.086 327.625 445.775 304.038 441.133C260.155 432.392 213.017 429.03 166.711 434.08C111.175 440.146 59.6389 457.441 11.8429 473.503C-85.5127 505.819 -170.677 535.989 -249.292 581.307C-272.758 594.829 -295.597 609.622 -317.794 626.285" stroke="#2870FF" stroke-width="0.552088" stroke-miterlimit="10"/>
<path d="M1697.12 707.139C1693.67 641.246 1618.56 617.623 1501.74 516.688C1493.89 509.907 1486.43 502.742 1478.68 495.977C1452.47 473.111 1425.1 451.297 1394.7 438.051C1305.31 398.687 1219.05 423.454 1129.94 450.401C1063.47 470.505 993.581 500.457 913.478 534.008C888.149 544.614 862.932 555.667 837.471 566.358C782.279 589.539 721.497 612.05 665.891 605.856C609.605 599.578 572.105 570.156 533.724 545.342C488.905 516.457 438.101 488.708 377.292 469.192C356.072 462.411 333.522 456.737 310.132 452.603C266.64 444.8 220.027 441.876 174.206 446.63C119.251 452.339 68.0624 468.29 20.4995 482.673C-76.426 511.582 -161.265 536.936 -240.391 577.667C-264.014 589.816 -287.076 603.257 -309.579 618.639" stroke="#2870FF" stroke-width="0.552088" stroke-miterlimit="10"/>
<path d="M1700.25 700.883C1697.01 639.109 1620.37 622.075 1500.97 521.156C1493.13 514.529 1485.68 507.513 1477.96 500.89C1451.82 478.446 1424.69 457.042 1394.85 443.596C1306.78 403.928 1222.32 424.164 1133.01 449.182C1067.44 467.554 998.006 496.083 917.895 528.81C892.756 539.078 867.736 549.837 842.496 560.272C787.784 582.897 727.875 605.033 672.825 600.304C617.101 595.506 579.012 569.058 540.079 546.861C494.605 521.032 443.499 496.178 382.938 478.787C361.803 472.743 339.408 467.711 316.222 464.079C273.125 457.219 227.036 454.722 181.689 459.181C127.31 464.539 76.4694 479.141 29.1452 491.844C-67.3506 517.341 -151.863 537.885 -231.507 574.035C-255.281 584.815 -278.57 596.904 -301.38 611.005" stroke="#2870FF" stroke-width="0.552088" stroke-miterlimit="10"/>
<path d="M1703.38 694.632C1700.35 636.976 1622.2 626.503 1500.21 525.629C1492.38 519.156 1484.95 512.294 1477.27 505.807C1451.19 483.779 1424.34 462.729 1395.01 449.145C1308.36 408.991 1225.6 424.901 1136.1 447.967C1071.45 464.628 1002.45 491.72 922.33 523.623C897.381 533.559 872.558 544.017 847.535 554.195C793.302 576.26 734.261 598.026 679.772 594.767C624.616 591.455 585.936 567.976 546.442 548.397C500.311 525.623 448.903 503.664 388.591 488.393C367.54 483.09 345.301 478.696 322.317 475.566C279.617 469.644 234.053 467.584 189.18 471.749C135.381 476.75 84.8889 490.014 37.7977 501.037C-58.268 523.128 -142.46 538.856 -222.61 570.418C-246.541 579.831 -270.047 590.567 -293.164 603.382" stroke="#2870FF" stroke-width="0.552088" stroke-miterlimit="10"/>
<path d="M1706.5 688.375C1703.69 634.833 1624.06 630.895 1499.43 530.097C1491.62 523.778 1484.2 517.064 1476.56 510.719C1450.53 489.114 1423.96 468.411 1395.16 454.684C1309.91 414.051 1228.88 425.666 1139.16 446.738C1075.43 461.709 1006.87 487.347 926.742 518.416C901.982 528.018 877.356 538.172 852.555 548.098C798.802 569.607 740.634 591.004 686.7 589.204C632.112 587.373 592.837 566.867 552.786 549.906C506.004 530.182 454.289 511.118 394.225 497.972C373.259 493.411 351.182 489.655 328.395 487.026C286.084 482.043 241.045 480.415 196.651 484.284C143.434 488.934 93.2893 500.849 46.4313 510.192C-49.2047 528.871 -133.071 539.783 -213.731 566.769C-237.814 574.814 -261.548 584.199 -284.971 595.726" stroke="#2870FF" stroke-width="0.552088" stroke-miterlimit="10"/>
<path d="M1709.63 682.118C1707.04 632.694 1625.95 635.247 1498.67 534.558C1490.87 528.388 1483.46 521.834 1475.86 515.624C1449.9 494.435 1423.61 474.086 1395.33 460.222C1311.48 419.103 1232.19 426.456 1142.24 445.511C1079.44 458.816 1011.32 482.988 931.171 513.217C906.6 522.487 882.171 532.341 857.591 542.004C804.319 562.953 747.018 583.98 693.646 583.644C639.625 583.293 599.754 565.757 559.147 551.419C511.708 534.75 459.692 518.582 399.881 507.561C379 503.735 357.079 500.622 334.495 498.501C292.58 494.455 248.066 493.26 204.152 496.839C151.515 501.137 101.713 511.703 55.0937 519.367C-40.1122 534.639 -123.652 540.735 -204.83 563.135C-229.064 569.812 -253.025 577.844 -276.756 588.086" stroke="#2870FF" stroke-width="0.552088" stroke-miterlimit="10"/>
<path d="M1712.75 675.867C1710.38 630.562 1627.86 639.57 1497.9 539.03C1490.12 533.009 1482.72 526.609 1475.15 520.541C1449.25 499.775 1423.24 479.773 1395.48 465.765C1313.04 424.161 1235.49 427.29 1145.31 444.286C1083.44 455.945 1015.76 478.63 935.588 508.014C911.207 516.952 886.98 526.505 862.617 535.911C809.824 556.305 753.391 576.958 700.585 578.086C647.133 579.22 606.667 564.652 565.503 552.932C517.407 539.319 465.085 526.046 405.527 517.145C384.731 514.061 362.971 511.585 340.584 509.966C299.065 506.864 255.075 506.1 211.635 509.379C159.579 513.32 110.125 522.542 63.739 528.532C-31.0371 540.393 -114.251 541.678 -195.941 559.491C-220.331 564.8 -244.515 571.48 -268.546 580.434" stroke="#2870FF" stroke-width="0.552088" stroke-miterlimit="10"/>
<path d="M1715.88 669.61C1713.72 628.424 1629.79 643.853 1497.13 543.498C1489.36 537.619 1481.98 531.379 1474.45 525.452C1448.61 505.108 1422.9 485.403 1395.63 471.309C1314.68 429.059 1238.8 428.163 1148.38 443.067C1087.44 453.107 1020.19 474.283 940.006 502.822C915.815 511.432 891.785 520.68 867.644 529.829C815.331 549.662 759.771 569.945 707.52 572.538C654.636 575.153 613.574 563.559 571.86 554.456C523.113 543.899 470.483 533.521 411.174 526.745C390.462 524.402 368.858 522.564 346.673 521.447C305.545 519.283 262.085 518.951 219.119 521.94C167.639 525.53 118.533 533.404 72.3798 537.714C-21.9663 546.168 -104.854 542.637 -187.055 555.868C-211.597 559.81 -236.009 565.132 -260.346 572.811" stroke="#2870FF" stroke-width="0.552088" stroke-miterlimit="10"/>
<path d="M1719.01 663.359C1717.07 626.291 1631.75 648.102 1496.37 547.971C1488.61 542.24 1481.24 536.16 1473.74 530.37C1447.96 510.448 1422.53 491.09 1395.79 476.853C1316.25 434.117 1242.11 429.075 1151.46 441.847C1091.46 450.297 1024.65 469.946 944.435 497.624C920.434 505.907 896.6 514.85 872.676 523.742C820.842 543.02 766.15 562.928 714.461 566.985C662.143 571.081 620.487 562.461 578.216 555.976C528.812 548.474 475.881 540.991 416.82 536.335C396.187 534.729 374.749 533.527 352.763 532.917C312.03 531.691 269.089 531.792 226.609 534.491C175.71 537.73 126.951 544.254 81.031 546.885C-12.8854 551.927 -95.447 543.586 -178.165 552.23C-202.864 554.804 -227.498 558.773 -252.137 565.166" stroke="#2870FF" stroke-width="0.552088" stroke-miterlimit="10"/>
<path d="M1722.13 657.103C1720.41 624.153 1633.73 652.299 1495.6 552.433C1487.87 546.845 1480.5 540.925 1473.04 535.275C1447.32 515.776 1422.17 496.766 1395.95 482.392C1317.82 439.176 1245.42 430.026 1154.53 440.616C1095.46 447.499 1029.09 465.599 948.852 492.421C925.041 500.377 901.404 509.009 877.702 517.65C826.348 536.366 772.528 555.905 721.395 561.427C669.646 567.008 627.398 561.351 584.566 557.49C534.506 553.043 481.273 548.456 422.465 545.924C401.917 545.06 380.636 544.495 358.852 544.393C318.509 544.106 276.099 544.643 234.092 547.042C183.774 549.924 135.363 555.105 89.6765 556.056C-3.80972 557.692 -86.0454 544.534 -169.275 548.597C-194.125 549.803 -218.987 552.42 -243.932 557.526" stroke="#2870FF" stroke-width="0.552088" stroke-miterlimit="10"/>
<path d="M1725.26 650.846C1723.75 622.015 1635.74 656.456 1494.83 556.9C1487.12 551.449 1479.74 545.712 1472.34 540.187C1446.64 521.156 1421.8 502.448 1396.11 487.936C1319.38 444.24 1248.73 431.027 1157.6 439.397C1099.47 444.733 1033.54 461.28 953.275 487.224C929.66 494.858 906.214 503.179 882.733 511.563C831.86 529.724 778.907 548.888 728.335 555.874C677.153 562.936 634.311 560.253 590.922 559.009C540.211 557.612 486.671 555.926 428.111 555.514C407.648 555.391 386.522 555.464 364.941 555.864C324.994 556.52 283.109 557.484 241.576 559.593C191.839 562.124 143.77 565.955 98.3225 565.232C5.26602 563.456 -76.6434 545.488 -160.385 544.964C-185.391 544.802 -210.476 546.067 -235.728 549.887" stroke="#2870FF" stroke-width="0.552088" stroke-miterlimit="10"/>
<path d="M1728.39 644.594C1727.09 619.883 1637.76 660.572 1494.06 561.373C1486.37 556.064 1479 550.493 1471.63 545.098C1446 526.489 1421.44 508.134 1396.27 493.474C1320.95 449.297 1252.03 432.071 1160.68 438.165C1103.47 441.984 1037.99 456.948 957.698 482.02C934.273 489.333 911.024 497.343 887.764 505.464C837.37 523.064 785.291 541.864 735.274 550.309C684.66 558.851 641.223 559.143 597.277 560.517C545.909 562.175 492.069 563.384 433.756 565.092C413.378 565.705 392.413 566.421 371.029 567.323C331.478 568.916 290.112 570.318 249.059 572.127C199.903 574.306 152.182 576.789 106.967 574.386C14.3407 569.203 -67.2428 546.419 -151.501 541.314C-176.659 539.785 -201.971 539.697 -227.524 542.236" stroke="#2870FF" stroke-width="0.552088" stroke-miterlimit="10"/>
<path d="M1731.51 638.337C1730.43 617.744 1639.82 664.637 1493.3 565.839C1485.63 560.668 1478.27 555.262 1470.93 550.009C1445.36 531.817 1421.07 513.815 1396.42 499.017C1322.51 454.361 1255.31 433.167 1163.75 436.945C1107.45 439.269 1042.43 452.639 962.121 476.822C938.887 483.818 915.833 491.512 892.791 499.376C842.876 516.421 791.665 534.847 742.209 544.761C692.163 554.784 648.13 558.05 603.634 562.041C551.615 566.755 497.467 570.859 439.403 574.692C419.109 576.047 398.3 577.4 377.119 578.804C337.958 581.336 297.122 583.169 256.549 584.688C207.973 586.51 160.595 587.65 115.619 583.568C23.4222 574.973 -57.8353 547.372 -142.605 537.686C-167.914 534.788 -193.454 533.349 -219.314 534.601" stroke="#2870FF" stroke-width="0.552088" stroke-miterlimit="10"/>
<path d="M1734.64 632.087C1733.78 615.612 1641.89 668.658 1492.53 570.313C1484.88 565.279 1477.52 560.039 1470.22 554.927C1444.72 537.156 1420.71 519.503 1396.58 504.562C1324.07 459.42 1258.59 434.314 1166.83 435.726C1111.43 436.578 1046.89 448.336 966.545 471.63C943.506 478.31 920.643 485.688 897.823 493.295C848.388 509.779 798.05 527.835 749.15 539.214C699.671 550.722 655.043 556.952 609.99 563.566C557.315 571.335 502.86 578.335 445.049 584.288C424.84 586.383 404.193 588.374 383.203 590.281C344.438 593.75 304.126 596.016 264.027 597.24C216.027 598.711 169.002 598.501 124.259 592.745C32.4928 580.743 -48.4388 548.327 -133.72 534.053C-159.186 529.788 -184.949 526.996 -211.115 526.962" stroke="#2870FF" stroke-width="0.552088" stroke-miterlimit="10"/>
<path d="M1737.77 625.83C1737.12 613.474 1643.98 672.621 1491.76 574.775C1484.14 569.872 1476.78 564.808 1469.52 559.832C1444.07 542.479 1420.34 525.179 1396.74 510.1C1325.64 464.478 1261.85 435.505 1169.91 434.495C1115.41 433.897 1051.34 444.032 970.967 466.421C948.119 472.785 925.458 479.841 902.854 487.196C853.899 503.125 804.428 520.807 756.095 533.649C707.184 546.638 661.96 555.841 616.351 565.074C563.019 575.898 508.263 585.793 450.706 593.871C430.581 596.703 410.09 599.336 389.303 601.75C350.934 606.163 311.142 608.862 271.522 609.79C224.103 610.904 177.425 609.351 132.91 601.915C41.5739 586.507 -39.0317 549.275 -124.83 530.42C-150.447 524.787 -176.438 520.637 -202.905 519.322" stroke="#2870FF" stroke-width="0.552088" stroke-miterlimit="10"/>
<path d="M1740.89 619.573C1740.46 611.336 1646.1 676.533 1491 579.242C1483.39 574.47 1476.04 569.578 1468.82 564.744C1443.44 547.812 1419.98 530.865 1396.9 515.638C1327.2 469.536 1265.08 436.748 1172.98 433.269C1119.36 431.245 1055.79 439.746 975.391 461.223C952.739 467.276 930.268 474.01 907.886 481.109C859.41 496.477 810.813 513.789 763.035 528.096C714.692 542.565 668.873 554.743 622.707 566.593C568.724 580.472 513.661 593.263 456.352 603.46C436.312 607.033 415.982 610.304 395.392 613.22C357.413 618.572 318.151 621.702 279.011 622.34C232.173 623.103 185.838 620.201 141.562 611.085C50.6549 592.266 -29.6245 550.223 -115.934 526.781C-141.709 519.78 -167.921 514.278 -194.695 511.682" stroke="#2870FF" stroke-width="0.552088" stroke-miterlimit="10"/>
<path d="M1744.02 613.321C1743.8 609.203 1648.23 680.394 1490.22 583.715C1482.64 579.075 1475.3 574.359 1468.11 569.661C1442.79 553.145 1419.6 536.553 1397.05 521.188C1328.76 474.605 1268.28 438.053 1176.04 432.05C1123.28 428.617 1060.26 435.568 979.803 456.026C957.349 461.796 935.066 468.18 912.906 475.022C864.911 489.835 817.18 506.772 769.964 522.543C722.189 538.498 675.78 553.644 629.052 568.113C574.412 585.048 519.048 600.733 461.987 613.056C442.032 617.37 421.857 621.279 401.47 624.697C363.887 630.986 325.15 634.548 286.484 634.892C240.227 635.303 194.24 631.057 150.197 620.262C59.7199 598.036 -20.2335 551.177 -107.054 523.153C-132.98 514.785 -159.421 507.931 -186.496 504.047" stroke="#2870FF" stroke-width="0.552088" stroke-miterlimit="10"/>
<path d="M1747.15 607.065C1747.15 607.065 1650.39 684.198 1489.46 588.182C1328.53 492.166 1268.31 381.525 984.232 450.828C787.927 498.721 606.073 597.579 407.571 636.166C325.899 652.042 239.288 652.332 158.853 629.433C68.8062 603.794 -10.8209 552.125 -98.159 519.515C-124.242 509.778 -150.899 501.571 -178.286 496.402" stroke="#2870FF" stroke-width="0.552088" stroke-miterlimit="10"/>
</g>
</svg>
