<svg width="182" height="24" viewBox="0 0 182 24" fill="none" xmlns="http://www.w3.org/2000/svg">
<path d="M42.3247 22.524V1.41547H46.7589L51.4906 13.7831C51.6795 14.3214 51.9251 15.0298 52.2273 15.9081C52.5295 16.777 52.8034 17.5798 53.049 18.3165C53.2851 17.5798 53.5543 16.777 53.8565 15.9081C54.1587 15.0298 54.4043 14.3214 54.5932 13.7831L59.2541 1.41547H63.7024V22.524H60.6141V11.0206C60.6141 10.265 60.6235 9.38667 60.6424 8.38554C60.6613 7.37498 60.6849 6.36913 60.7132 5.36801C60.326 6.5108 59.9577 7.58748 59.6082 8.59805C59.2682 9.60861 58.9849 10.4161 58.7582 11.0206L54.3098 22.524H51.7315L47.2406 11.0206C47.0234 10.4445 46.7448 9.68417 46.4048 8.73971C46.0742 7.78581 45.7153 6.76108 45.3281 5.66551C45.3564 6.62886 45.38 7.58276 45.3989 8.52721C45.4178 9.47167 45.4272 10.3028 45.4272 11.0206V22.524H42.3247Z" fill="white"/>
<path d="M72.8905 22.864C71.4643 22.864 70.2129 22.5335 69.1363 21.8724C68.0596 21.2112 67.219 20.2951 66.6146 19.124C66.0196 17.9529 65.7221 16.6023 65.7221 15.0723C65.7221 13.5234 66.0196 12.1634 66.6146 10.9922C67.219 9.81167 68.0596 8.89083 69.1363 8.22971C70.2129 7.55915 71.4643 7.22386 72.8905 7.22386C74.3166 7.22386 75.5633 7.55915 76.6305 8.22971C77.7072 8.89083 78.543 9.81167 79.138 10.9922C79.7425 12.1634 80.0447 13.5234 80.0447 15.0723C80.0447 16.6023 79.7425 17.9529 79.138 19.124C78.543 20.2951 77.7072 21.2112 76.6305 21.8724C75.5633 22.5335 74.3166 22.864 72.8905 22.864ZM72.8905 20.2857C74.1749 20.2857 75.1855 19.8134 75.9222 18.869C76.6589 17.9245 77.0272 16.659 77.0272 15.0723C77.0272 13.4667 76.6541 12.187 75.908 11.2331C75.1713 10.2792 74.1655 9.80223 72.8905 9.80223C71.6155 9.80223 70.6049 10.2792 69.8588 11.2331C69.1221 12.1775 68.7538 13.4573 68.7538 15.0723C68.7538 16.6684 69.1221 17.9387 69.8588 18.8832C70.5955 19.8182 71.606 20.2857 72.8905 20.2857Z" fill="white"/>
<path d="M81.8235 22.524V7.56387H84.7277V10.0714C85.1905 9.14583 85.8186 8.44693 86.6119 7.97471C87.4052 7.50248 88.2647 7.26637 89.1903 7.26637C90.2103 7.26637 91.1028 7.52609 91.8678 8.04554C92.6422 8.56499 93.1853 9.22611 93.497 10.0289C93.9031 9.21666 94.517 8.55555 95.3387 8.04554C96.1698 7.52609 97.1378 7.26637 98.2429 7.26637C99.1684 7.26637 100.009 7.46942 100.765 7.87554C101.52 8.28165 102.12 8.88611 102.564 9.68889C103.008 10.4822 103.23 11.4786 103.23 12.6781V22.524H100.226V12.9331C100.226 11.8659 99.9287 11.0914 99.3337 10.6097C98.7387 10.1281 98.0351 9.88723 97.2228 9.88723C96.2217 9.88723 95.4331 10.1989 94.857 10.8222C94.2809 11.4361 93.9928 12.22 93.9928 13.1739V22.524H91.0461V12.7348C91.0461 11.8753 90.7675 11.1859 90.2103 10.6664C89.6625 10.147 88.9636 9.88723 88.1136 9.88723C87.2447 9.88723 86.4749 10.1942 85.8044 10.8081C85.1433 11.422 84.8127 12.3192 84.8127 13.4998V22.524H81.8235Z" fill="white"/>
<path d="M112.134 22.864C110.651 22.864 109.376 22.5288 108.309 21.8582C107.251 21.1876 106.434 20.2668 105.858 19.0957C105.292 17.9151 105.008 16.574 105.008 15.0723C105.008 13.5517 105.306 12.2011 105.901 11.0206C106.496 9.84 107.318 8.91444 108.366 8.24388C109.414 7.56387 110.618 7.22386 111.978 7.22386C113.395 7.22386 114.623 7.55442 115.662 8.21554C116.71 8.87666 117.522 9.7975 118.099 10.9781C118.675 12.1492 118.963 13.5045 118.963 15.044V15.8515H107.955C108.012 17.202 108.399 18.2929 109.117 19.124C109.844 19.9551 110.864 20.3707 112.177 20.3707C113.159 20.3707 113.967 20.1487 114.599 19.7048C115.232 19.2609 115.652 18.6848 115.86 17.9765H118.736C118.557 18.9398 118.155 19.7898 117.532 20.5265C116.918 21.2632 116.143 21.8393 115.208 22.2549C114.283 22.661 113.258 22.864 112.134 22.864ZM107.983 13.5848H116.044C115.922 12.3948 115.501 11.455 114.783 10.7656C114.066 10.0667 113.14 9.71723 112.007 9.71723C110.873 9.71723 109.948 10.0667 109.23 10.7656C108.522 11.455 108.106 12.3948 107.983 13.5848Z" fill="white"/>
<path d="M123.674 13.9106V22.524H120.685V7.56387H123.617V9.81639C124.637 8.11637 126.144 7.26637 128.137 7.26637C129.166 7.26637 130.087 7.49303 130.899 7.94637C131.721 8.39027 132.368 9.05138 132.84 9.92973C133.312 10.8081 133.548 11.8989 133.548 13.2023V22.524H130.559V13.5706C130.559 12.3711 130.271 11.4692 129.695 10.8647C129.119 10.2508 128.316 9.94389 127.287 9.94389C126.267 9.94389 125.407 10.2603 124.708 10.8931C124.019 11.5164 123.674 12.5223 123.674 13.9106Z" fill="white"/>
<path d="M143.26 7.56387V10.0289H140.229V18.5715C140.229 19.1287 140.342 19.5159 140.569 19.7332C140.795 19.9504 141.206 20.059 141.801 20.059H143.26V22.524H141.376C138.609 22.524 137.225 21.334 137.225 18.954V10.0289H134.59V7.56387H137.225V3.48382H140.229V7.56387H143.26Z" fill="white"/>
<path d="M150.168 22.8215C149.148 22.8215 148.227 22.5996 147.405 22.1557C146.593 21.7024 145.946 21.0365 145.464 20.1582C144.992 19.2798 144.756 18.189 144.756 16.8856V7.56387H147.745V16.5173C147.745 17.7168 148.033 18.6234 148.609 19.2373C149.185 19.8418 149.993 20.144 151.032 20.144C152.042 20.144 152.892 19.8323 153.582 19.209C154.281 18.5762 154.63 17.5656 154.63 16.1773V7.56387H157.619V22.524H154.687V20.2715C153.667 21.9715 152.16 22.8215 150.168 22.8215Z" fill="white"/>
<path d="M160.121 22.524V7.56387H163.025V10.0714C163.488 9.14583 164.116 8.44693 164.909 7.97471C165.702 7.50248 166.562 7.26637 167.487 7.26637C168.507 7.26637 169.4 7.52609 170.165 8.04554C170.939 8.56499 171.482 9.22611 171.794 10.0289C172.2 9.21666 172.814 8.55555 173.636 8.04554C174.467 7.52609 175.435 7.26637 176.54 7.26637C177.466 7.26637 178.306 7.46942 179.062 7.87554C179.817 8.28165 180.417 8.88611 180.861 9.68889C181.305 10.4822 181.527 11.4786 181.527 12.6781V22.524H178.523V12.9331C178.523 11.8659 178.226 11.0914 177.631 10.6097C177.036 10.1281 176.332 9.88723 175.52 9.88723C174.519 9.88723 173.73 10.1989 173.154 10.8222C172.578 11.4361 172.29 12.22 172.29 13.1739V22.524H169.343V12.7348C169.343 11.8753 169.065 11.1859 168.507 10.6664C167.96 10.147 167.261 9.88723 166.411 9.88723C165.542 9.88723 164.772 10.1942 164.102 10.8081C163.44 11.422 163.11 12.3192 163.11 13.4998V22.524H160.121Z" fill="white"/>
<path d="M35.3111 0L31.3451 12H24.2347L28.2006 0H35.3111Z" fill="#174DFF"/>
<path d="M19.2673 17.9289L25.2052 0H18.1017L12.1633 17.9289H19.2673Z" fill="#174DFF"/>
<path d="M15.044 0L14.8178 0.684464C14.8164 0.687912 14.8152 0.691359 14.814 0.694805L7.11107 24H0L6.61474 3.98726C6.95406 2.96068 6.18958 1.90284 5.10838 1.90284H0V0H15.044Z" fill="#174DFF"/>
</svg>
